HIERARCHY
ROOT Hips
{
	OFFSET	0.00	0.00	0.00
	CHANNELS 6 Xposition Yposition Zposition Zrotation Xrotation Yrotation
	JOINT LeftUpLeg
	{
		OFFSET	 0.126116	-0.014019	-0.065224
		CHANNELS 3 Zrotation Xrotation Yrotation
		JOINT LeftLeg
		{
			OFFSET	 0.000000	 0.000000	 0.569914
			CHANNELS 3 Zrotation Xrotation Yrotation
			JOINT LeftFoot
			{
				OFFSET	 0.000000	 0.000000	 0.544423
				CHANNELS 3 Zrotation Xrotation Yrotation
				JOINT LeftToeBase
				{
					OFFSET	 0.000000	 0.000000	 0.207117
					CHANNELS 3 Zrotation Xrotation Yrotation
					End Site
					{
						OFFSET	 0.000000	 0.000000	 0.207117
					}
				}
			}
		}
	}
	JOINT RightUpLeg
	{
		OFFSET	-0.124023	-0.008373	-0.065224
		CHANNELS 3 Zrotation Xrotation Yrotation
		JOINT RightLeg
		{
			OFFSET	 0.000000	 0.000000	 0.570047
			CHANNELS 3 Zrotation Xrotation Yrotation
			JOINT RightFoot
			{
				OFFSET	 0.000000	 0.000000	 0.544354
				CHANNELS 3 Zrotation Xrotation Yrotation
				JOINT RightToeBase
				{
					OFFSET	 0.000000	 0.000000	 0.207540
					CHANNELS 3 Zrotation Xrotation Yrotation
					End Site
					{
						OFFSET	 0.000000	 0.000000	 0.207540
					}
				}
			}
		}
	}
	JOINT Spine
	{
		OFFSET	 0.000184	-0.007763	 0.117403
		CHANNELS 3 Zrotation Xrotation Yrotation
		JOINT Spine1
		{
			OFFSET	 0.000000	 0.000000	 0.137269
			CHANNELS 3 Zrotation Xrotation Yrotation
			JOINT Spine2
			{
				OFFSET	 0.000000	 0.000000	 0.156879
				CHANNELS 3 Zrotation Xrotation Yrotation
				JOINT LeftShoulder
				{
					OFFSET	 0.080501	-0.002496	 0.160144
					CHANNELS 3 Zrotation Xrotation Yrotation
					JOINT LeftArm
					{
						OFFSET	 0.000000	 0.000000	 0.164363
						CHANNELS 3 Zrotation Xrotation Yrotation
						JOINT LeftForeArm
						{
							OFFSET	 0.000000	 0.000000	 0.364576
							CHANNELS 3 Zrotation Xrotation Yrotation
							JOINT LeftHand
							{
								OFFSET	 0.000000	 0.000000	 0.360812
								CHANNELS 3 Zrotation Xrotation Yrotation
								JOINT LeftHandIndex1
								{
									OFFSET	 0.000000	 0.000000	 0.086006
									CHANNELS 3 Zrotation Xrotation Yrotation
									JOINT LeftHandIndex2
									{
										OFFSET	 0.000000	 0.000000	 0.047236
										CHANNELS 3 Zrotation Xrotation Yrotation
										JOINT LeftHandIndex3
										{
											OFFSET	-0.004284	-0.000551	 0.038166
											CHANNELS 3 Zrotation Xrotation Yrotation
											End Site
											{
												OFFSET	-0.004284	-0.000551	 0.038166
											}
										}
									}
								}
							}
						}
					}
				}
				JOINT Neck
				{
					OFFSET	 0.000000	 0.000000	 0.176489
					CHANNELS 3 Zrotation Xrotation Yrotation
					JOINT Head
					{
						OFFSET	 0.000000	-0.001747	 0.077940
						CHANNELS 3 Zrotation Xrotation Yrotation
						End Site
						{
							OFFSET	 0.000000	-0.001747	 0.077940
						}
					}
				}
				JOINT RightShoulder
				{
					OFFSET	-0.080363	 0.000306	 0.159706
					CHANNELS 3 Zrotation Xrotation Yrotation
					JOINT RightArm
					{
						OFFSET	 0.000000	 0.000000	 0.164196
						CHANNELS 3 Zrotation Xrotation Yrotation
						JOINT RightForeArm
						{
							OFFSET	 0.000000	 0.000000	 0.365611
							CHANNELS 3 Zrotation Xrotation Yrotation
							JOINT RightHand
							{
								OFFSET	 0.000000	 0.000000	 0.360648
								CHANNELS 3 Zrotation Xrotation Yrotation
								JOINT RightHandIndex1
								{
									OFFSET	 0.000000	 0.000000	 0.069977
									CHANNELS 3 Zrotation Xrotation Yrotation
									JOINT RightHandIndex2
									{
										OFFSET	 0.000000	 0.000000	 0.052305
										CHANNELS 3 Zrotation Xrotation Yrotation
										JOINT RightHandIndex3
										{
											OFFSET	 0.009002	-0.000782	 0.042196
											CHANNELS 3 Zrotation Xrotation Yrotation
											End Site
											{
												OFFSET	 0.009002	-0.000782	 0.042196
											}
										}
									}
								}
							}
						}
					}
				}
			}
		}
	}
}
MOTION
Frames:    13
Frame Time: 0.03333334
 0.848607	 7.131669	 0.140749	-12.445610	 4.100916	-1.064363	 9.434348	 18.228400	-176.293900	-5.732539	-11.624770	 1.534076	-10.194200	 89.001430	 13.636770	-2.276211	 41.809110	-0.325236	 4.502485	-45.698350	-179.736800	-0.210088	-42.339790	 3.638347	-176.332300	 84.506350	-178.919900	 2.389705	 27.169750	-0.026160	 3.892615	 2.501881	 2.648143	 7.330650	-5.141478	 1.699970	 9.440006	-9.205295	 0.652322	-91.776180	 78.527400	 180.000000	 42.515620	 62.263910	-57.821390	-6.401560	-4.586801	-26.622120	 5.083913	-2.115658	-5.363073	-3.812334	 37.924440	-2.927599	-2.450526	 36.184240	 0.754587	-1.378229	 35.397820	-2.634230	-0.272204	 5.024161	-2.302837	 2.711308	-23.791430	-1.014401	 89.782090	 78.203890	-180.000000	-30.384190	 73.183200	 33.888090	 3.857649	-6.480624	 19.661400	-14.406260	-3.283232	 9.538855	 6.437017	 35.671460	-0.771858	 2.830251	 35.756010	-7.813440	-2.350882	 35.473990	 5.254307
 0.834272	 7.070849	 0.138872	-11.365620	 4.386471	-1.392593	 8.765131	 20.661690	-176.798800	-4.828456	-11.621660	 1.557929	 1.742218	 87.625530	 1.846625	-2.217680	 45.795850	-0.443584	 5.205470	-44.828140	-178.676100	 0.725550	-42.566690	 4.614000	-175.561400	 86.829790	-178.812900	 2.378015	 29.786050	 0.030513	 3.579048	 2.002840	 2.415312	 7.011438	-5.535995	 1.488479	 9.286357	-9.333786	 0.529602	-91.776180	 78.527380	-180.000000	 44.441480	 63.483410	-59.433050	-6.206258	-4.529806	-23.788010	 5.826984	-2.147448	-5.353453	-3.812334	 37.924440	-2.927599	-2.450526	 36.184240	 0.754587	-1.378229	 35.397820	-2.634230	-0.514940	 5.147282	-2.247963	 2.534941	-23.938370	-0.889879	 89.782090	 78.203830	-180.000000	-28.662400	 73.919560	 31.376920	 3.942366	-6.339187	 18.707560	-14.794870	-3.300139	 9.525470	 6.437017	 35.671460	-0.771858	 2.830251	 35.756010	-7.813440	-2.350882	 35.473990	 5.254307
 0.813786	 6.992236	 0.138946	-10.550160	 4.451726	-1.411656	 8.468465	 23.571120	-178.147100	-3.546551	-11.608830	 1.651658	 4.998076	 82.923240	-0.726880	-2.100034	 51.596390	-0.645325	 4.599286	-43.015100	-178.922500	 5.138897	-45.169580	 7.814224	 6.909394	 88.532200	 1.070559	 2.371604	 30.974720	 0.056976	 3.229233	 1.297160	 1.551009	 6.793043	-6.093597	 1.248219	 9.309559	-9.578468	 0.476211	-91.776180	 78.527400	-180.000000	 45.325750	 66.141470	-58.691640	-6.843361	-4.392043	-20.650350	 6.694383	-2.199804	-5.335529	-3.812334	 37.924440	-2.927599	-2.450526	 36.184240	 0.754587	-1.378229	 35.397820	-2.634230	-0.794781	 4.821432	-2.058135	 2.342508	-23.398860	-0.541188	 89.782090	 78.203830	-180.000000	-26.048740	 74.772670	 27.775730	 4.267883	-6.207431	 17.930970	-15.107110	-3.314608	 9.513511	 6.437017	 35.671460	-0.771858	 2.830251	 35.756010	-7.813440	-2.350882	 35.473990	 5.254307
 0.797584	 6.933712	 0.142874	-10.383010	 4.339465	-1.317364	 8.701674	 25.568760	-179.159600	-3.124712	-11.601430	 1.703276	 4.732437	 76.478450	 0.217512	-2.058632	 53.204150	-0.709500	 3.712009	-41.650960	-179.718700	 6.498527	-47.069770	 8.689586	 4.869853	 86.360240	 3.295059	 2.372836	 30.754430	 0.052043	 3.349618	 0.563688	 0.969014	 6.942645	-6.364168	 1.047895	 9.186617	-9.644413	 0.656780	-91.776180	 78.527400	 180.000000	 44.489600	 68.558750	-56.137100	-8.073976	-4.222549	-18.992780	 6.990764	-2.231639	-5.324159	-3.812334	 37.924440	-2.927599	-2.450526	 36.184240	 0.754587	-1.378229	 35.397820	-2.634230	-0.954994	 4.746311	-1.904309	 2.265152	-23.112020	-0.211179	 89.782110	 78.203870	 180.000000	-24.564060	 75.218530	 25.736170	 4.479286	-6.138921	 17.592410	-15.230980	-3.320319	 9.509240	 6.437017	 35.671460	-0.771858	 2.830251	 35.756010	-7.813440	-2.350882	 35.473990	 5.254307
 0.773761	 6.852155	 0.151827	-10.163560	 4.204524	-1.432492	 9.154619	 27.893980	 179.647600	-3.886306	-11.623630	 1.541927	 3.914708	 63.450040	 1.148480	-2.074339	 52.614140	-0.685464	 3.234715	-38.500500	 179.501600	 5.832397	-48.799770	 8.261270	 4.927030	 85.672290	 2.316976	 2.387384	 27.752210	-0.013718	 3.629680	-0.464244	 0.839182	 7.161827	-6.582817	 0.922341	 9.048926	-9.386512	 0.832825	-91.776180	 78.527400	 180.000000	 41.165860	 71.340160	-49.448540	-9.983915	-3.919309	-18.055140	 6.553463	-2.250587	-5.321458	-3.812334	 37.924440	-2.927599	-2.450526	 36.184240	 0.754587	-1.378229	 35.397820	-2.634230	-0.961616	 4.656937	-1.862837	 2.208819	-22.125630	-0.008886	 89.782120	 78.203870	 180.000000	-24.115220	 75.480430	 24.945770	 4.459537	-6.116397	 17.409020	-15.369710	-3.325829	 9.503534	 6.437017	 35.671460	-0.771858	 2.830251	 35.756010	-7.813440	-2.350882	 35.473990	 5.254307
 0.749487	 6.787860	 0.164717	-9.534733	 3.119080	-1.081044	 6.894223	 19.426350	 177.359800	-2.913317	-31.604110	 0.674564	 1.592071	 57.040970	 0.602592	-2.170951	 48.368520	-0.528006	 2.240715	-33.664210	 178.366200	 5.893894	-48.996280	 7.779234	 5.594839	 87.453010	 1.255258	 2.398634	 24.429420	-0.083565	 3.288723	-0.132419	 0.304033	 6.934195	-6.704204	 0.764544	 9.307407	-9.066544	 0.662055	-91.776180	 78.527400	-180.000000	 37.331120	 72.106370	-42.118110	-10.323950	-3.777977	-18.376540	 5.986578	-2.247564	-5.326036	-3.812334	 37.924440	-2.927599	-2.450526	 36.184240	 0.754587	-1.378229	 35.397820	-2.634230	-1.059653	 4.580813	-1.738811	 1.978227	-20.540910	-0.193509	 89.782140	 78.203830	 180.000000	-24.779830	 75.244730	 25.384140	 4.461700	-6.223959	 18.153350	-15.055280	-3.311630	 9.515052	 6.437017	 35.671460	-0.771858	 2.830251	 35.756010	-7.813440	-2.350882	 35.473990	 5.254307
 0.721772	 6.719346	 0.176159	-7.922103	 1.874074	 1.518178	 6.927259	 9.018863	 171.575200	-1.588335	-52.219320	-0.318306	 0.781688	 50.251610	 1.307034	-2.311791	 38.738580	-0.242324	 0.436406	-26.947670	 174.951100	 6.503717	-46.901150	 6.671766	 3.743287	 89.884650	 2.780942	 2.401642	 23.182000	-0.109149	 2.359148	 0.144639	-2.463893	 6.411249	-6.832362	-0.030479	 8.948078	-9.501944	 0.669100	-91.776180	 78.527380	-180.000000	 35.460230	 71.620160	-38.146100	-9.193822	-4.012388	-19.440750	 6.246531	-2.225673	-5.330560	-3.812334	 37.924440	-2.927599	-2.450526	 36.184240	 0.754587	-1.378229	 35.397820	-2.634230	-1.525502	 4.601539	-1.415014	 1.449819	-19.551270	-0.795054	 89.782120	 78.203870	 180.000000	-27.855890	 74.393420	 29.115350	 4.477278	-6.526897	 20.161380	-14.312180	-3.276608	 9.541446	 6.437017	 35.671460	-0.771858	 2.830251	 35.756010	-7.813440	-2.350882	 35.473990	 5.254307
 0.696872	 6.653913	 0.182026	-6.372636	 1.132528	 3.531992	 5.168909	-0.051342	 168.424200	 1.129184	-66.037830	-0.174567	 1.376602	 54.828130	 0.643106	-2.291827	 40.539960	-0.290192	-0.510803	-20.908200	 172.541300	 6.431834	-44.014340	 5.314942	-174.166900	 88.377790	-179.855300	 2.404386	 21.713850	-0.138870	 1.813463	 0.127247	-4.584900	 6.021285	-6.976416	-0.587296	 8.154124	-10.113900	 0.876425	-91.776180	 78.527400	 180.000000	 33.808490	 70.854360	-35.625730	-8.793636	-4.259496	-21.501510	 6.115435	-2.180632	-5.343858	-3.812334	 37.924440	-2.927599	-2.450526	 36.184240	 0.754587	-1.378229	 35.397820	-2.634230	-2.165015	 4.803826	-0.958032	 0.794451	-19.359040	-1.699972	 89.782110	 78.203930	 180.000000	-30.936240	 72.850210	 33.444000	 4.422727	-6.888184	 22.880510	-13.401640	-3.231473	 9.571717	 6.437017	 35.671460	-0.771858	 2.830251	 35.756010	-7.813440	-2.350882	 35.473990	 5.254307
 0.674958	 6.593579	 0.182946	-5.327234	 0.439118	 3.969515	 2.508007	-8.405079	 168.549700	 5.836440	-73.636460	 2.486197	 2.060527	 63.157900	 0.272573	-2.286247	 41.005540	-0.302922	-0.613395	-16.132230	 171.777100	 5.993586	-42.558350	 4.500581	-175.141800	 86.606850	-179.329400	 2.405974	 20.538510	-0.162398	 1.937512	 0.315584	-4.899080	 5.858487	-6.962764	-0.649529	 7.288805	-10.465190	 1.133276	-91.776180	 78.527400	 180.000000	 31.002700	 70.436230	-32.675670	-9.992154	-4.328649	-24.627230	 5.244758	-2.132030	-5.359604	-3.812334	 37.924440	-2.927599	-2.450526	 36.184240	 0.754587	-1.378229	 35.397820	-2.634230	-2.706383	 4.913762	-0.490226	 0.194393	-19.416800	-2.787477	 89.782120	 78.203870	 180.000000	-33.540720	 70.779330	 37.947060	 4.280100	-7.197640	 25.813150	-12.481630	-3.200538	 9.590480	 6.437017	 35.671460	-0.771858	 2.830251	 35.756010	-7.813440	-2.350882	 35.473990	 5.254307
 0.655980	 6.536625	 0.180073	-4.906374	 0.013435	 4.164896	 0.567842	-16.149990	 169.598900	 2.964033	-76.061710	-1.163492	 0.925886	 72.751060	-0.203135	-2.273501	 42.018800	-0.331136	-0.546237	-12.595970	 171.310400	 5.781677	-42.534240	 4.177268	-175.060000	 84.957170	-179.646400	 2.403618	 22.171380	-0.129650	 2.326199	 0.532325	-5.147423	 5.992279	-7.054330	-0.444281	 6.694477	-10.953580	 1.502138	-91.776180	 78.527400	-180.000000	 28.588380	 70.297840	-30.186560	-11.499880	-4.246969	-27.852070	 4.239419	-2.098666	-5.369192	-3.812334	 37.924440	-2.927599	-2.450526	 36.184240	 0.754587	-1.378229	 35.397820	-2.634230	-3.047095	 4.970215	-0.166935	-0.236630	-19.390020	-3.542809	 89.782090	 78.203830	-180.000000	-34.975920	 68.422420	 41.597580	 3.975919	-7.440410	 28.476400	-11.759320	-3.180232	 9.601480	 6.437017	 35.671460	-0.771858	 2.830251	 35.756010	-7.813440	-2.350882	 35.473990	 5.254307
 0.639590	 6.481746	 0.174987	-4.754495	 0.181457	 4.669871	-0.798733	-23.002090	 170.707100	-4.431316	-73.888630	-8.666730	-1.173340	 79.896700	-0.756931	-2.262828	 42.816980	-0.353915	-0.670185	-9.844691	 170.596100	 5.387977	-43.031220	 3.644166	-176.383400	 82.957080	-178.890000	 2.404934	 21.349810	-0.146176	 2.403429	 0.528930	-5.901826	 6.028424	-7.269730	-0.248127	 6.261745	-11.568920	 1.766562	-91.776180	 78.527400	-180.000000	 27.031680	 70.367880	-28.436670	-12.307270	-4.346684	-30.574490	 3.898617	-2.098555	-5.369934	-3.812334	 37.924440	-2.927599	-2.450526	 36.184240	 0.754587	-1.378229	 35.397820	-2.634230	-3.181022	 5.019469	-0.066446	-0.458519	-19.172750	-3.748756	 89.782120	 78.203870	 180.000000	-35.340130	 66.110950	 44.237630	 3.658290	-7.625825	 30.713800	-11.238890	-3.181530	 9.601122	 6.437017	 35.671460	-0.771858	 2.830251	 35.756010	-7.813440	-2.350882	 35.473990	 5.254307
 0.622529	 6.420709	 0.168757	-4.827644	 0.390535	 5.223805	-1.399284	-28.298760	 171.806400	-6.374582	-66.482290	-9.921724	-1.750491	 84.631770	-2.338146	-2.273148	 42.045590	-0.331898	-0.424938	-6.151745	 169.754400	 5.225402	-41.957690	 3.260038	-176.291500	 81.773830	-179.142500	 2.404741	 21.478560	-0.143598	 2.294933	 0.474348	-6.654952	 5.953218	-7.534371	-0.099406	 5.886870	-12.239410	 1.926616	-91.776180	 78.527400	 180.000000	 26.573850	 70.425420	-27.766470	-12.653230	-4.445388	-32.654780	 3.742459	-2.108103	-5.368774	-3.812334	 37.924440	-2.927599	-2.450526	 36.184240	 0.754587	-1.378229	 35.397820	-2.634230	-3.110094	 4.919315	-0.072227	-0.509790	-18.982290	-3.618611	 89.782110	 78.203870	 180.000000	-35.287090	 63.850290	 46.835590	 3.391731	-7.828680	 32.787530	-10.899270	-3.190429	 9.597095	 6.437017	 35.671460	-0.771858	 2.830251	 35.756010	-7.813440	-2.350882	 35.473990	 5.254307
 0.608533	 6.364720	 0.163670	-4.809432	 0.629859	 5.935119	-0.731704	-31.048220	 172.755600	-5.814565	-57.003200	-7.738128	-0.833227	 85.976160	-4.177621	-2.261505	 42.913430	-0.356689	-0.039409	-1.860033	 168.794600	 4.964674	-38.599660	 2.621294	-177.222300	 81.798650	-178.472100	 2.403661	 22.148050	-0.130121	 1.932565	 0.037511	-7.671917	 5.761347	-7.885107	-0.034476	 5.411833	-13.082070	 2.029747	-91.776180	 78.527400	 180.000000	 27.059900	 70.434850	-28.176330	-12.525220	-4.533903	-33.415230	 3.813660	-2.099849	-5.370466	-3.812334	 37.924440	-2.927599	-2.450526	 36.184240	 0.754587	-1.378229	 35.397820	-2.634230	-2.944065	 4.870514	-0.161666	-0.463854	-19.185260	-3.352052	 89.782090	 78.203830	-180.000000	-35.249840	 62.149700	 48.795190	 3.151841	-7.956072	 34.325270	-10.652750	-3.176852	 9.603286	 6.437017	 35.671460	-0.771858	 2.830251	 35.756010	-7.813440	-2.350882	 35.473990	 5.254307
